<svg xmlns="http://www.w3.org/2000/svg" width="314" height="314" viewBox="0 0 314 314">
  <g id="Group_85" data-name="Group 85" transform="translate(-584.047 -1237)">
    <path id="Path_91" data-name="Path 91" d="M1115.841,595.315c67,111.014-22.991,201.008-134.006,134.006-111.013,67-201.008-22.992-134.005-134.006-67-111.014,22.992-201.009,134.005-134.006C1092.85,394.306,1182.843,484.3,1115.841,595.315Z" transform="translate(-240.789 798.685)" fill="#ea135b"/>
    <path id="Path_128" data-name="Path 128" d="M1030.982,549.533c47.464,78.641-16.287,142.393-94.929,94.929-78.641,47.464-142.393-16.287-94.929-94.929-47.464-78.642,16.288-142.394,94.929-94.929C1014.695,407.139,1078.446,470.891,1030.982,549.533Z" transform="translate(-195.006 844.467)" fill="none" stroke="#fff" stroke-width="2"/>
  </g>
</svg>
