<svg xmlns="http://www.w3.org/2000/svg" viewBox="0 0 768.62 136.13"><g id="Layer_2" data-name="Layer 2"><g id="Layer_1-2" data-name="Layer 1"><g id="Layer_2-2" data-name="Layer 2"><g id="Logos"><g style="isolation:isolate"><g style="isolation:isolate"><path d="M0,13.72A13.42,13.42,0,0,1,3.83,3.83,13.42,13.42,0,0,1,13.72,0H31.48V16.14H20.58q-3.63,0-3.63,4V116q0,4,3.63,4h10.9v16.14H13.72a13.38,13.38,0,0,1-9.89-3.83A13.39,13.39,0,0,1,0,122.41Z" fill="#fff"/></g><g style="isolation:isolate"><path d="M74.79,115.15H57.85V21H74.79v38.2h2.43a20.33,20.33,0,0,1,7.53-9.35A21.67,21.67,0,0,1,97,46.54a25.06,25.06,0,0,1,9.15,1.62A19.79,19.79,0,0,1,113.4,53a22.42,22.42,0,0,1,4.85,8.27A36.65,36.65,0,0,1,120,73.18v42H103V77.21q0-7.12-3.43-11.23t-9.88-4.1q-7.55,0-11.24,5t-3.7,13.52Z" fill="#fff"/></g><g style="isolation:isolate"><path d="M183,105.46q-2.7,6.33-7.54,9a23.31,23.31,0,0,1-11.3,2.62,28.5,28.5,0,0,1-11.36-2.28A26.91,26.91,0,0,1,143.4,108,32.87,32.87,0,0,1,137,97.26a41.06,41.06,0,0,1-2.36-14.4V80.71a41.86,41.86,0,0,1,2.29-14.26,33.19,33.19,0,0,1,6.19-10.76,26.43,26.43,0,0,1,20.18-9.15q7.13,0,11.5,2.43a17,17,0,0,1,6.93,7.53h2.42V48.43h17V95q0,4,3.63,4h2.55v16.14H195.73a10.55,10.55,0,0,1-7.47-2.69,9.11,9.11,0,0,1-2.89-7Zm-15.07-4.57A15.2,15.2,0,0,0,179.72,96q4.44-4.91,4.44-13.38V81q0-8.48-4.44-13.38t-11.84-4.91q-7.4,0-11.84,4.91T151.6,81V82.6q0,8.48,4.44,13.38A15.2,15.2,0,0,0,167.88,100.89Z" fill="#fff"/></g><g style="isolation:isolate"><path d="M285.71,90.67a32.21,32.21,0,0,1-10.83,19.1q-8.53,7.26-22.8,7.26a40.66,40.66,0,0,1-13.78-2.28,32.4,32.4,0,0,1-11.1-6.6,30.06,30.06,0,0,1-7.4-10.62,36.39,36.39,0,0,1-2.69-14.4V81.52A37.37,37.37,0,0,1,219.8,67a32.26,32.26,0,0,1,7.46-11,32.7,32.7,0,0,1,11.17-7,38.08,38.08,0,0,1,13.65-2.43q14,0,22.67,7.27a31.93,31.93,0,0,1,11,19.1L269,77.21A17.41,17.41,0,0,0,263.92,67q-4.31-4.3-12.11-4.3A17.81,17.81,0,0,0,245,64a17,17,0,0,0-5.65,3.84,18.13,18.13,0,0,0-3.83,6,21.59,21.59,0,0,0-1.41,8v.81a20.57,20.57,0,0,0,1.41,7.87,16.3,16.3,0,0,0,3.83,5.72A15.92,15.92,0,0,0,245,99.75a20.49,20.49,0,0,0,6.86,1.14q7.8,0,11.91-3.9A18.65,18.65,0,0,0,269,86.5Z" fill="#fff"/></g><g style="isolation:isolate"><path d="M317.87,72.91h3.22l17.76-24.48h18.57v.8L335.89,79.77v2.42l23.68,32.15v.81H340.2l-19.11-26.1h-3.22v26.1H300.92V21h16.95Z" fill="#fff"/></g><g style="isolation:isolate"><path d="M365.35,48.43h18.29l15.74,58.65h2.42l15.74-58.65h18.3l-19.11,66.72H384.45Z" fill="#fff"/></g><g style="isolation:isolate"><path d="M444.45,99h22.6V64.57h-21V48.43H484V99h19.37v16.14H444.45Zm43.72-70.36a12.72,12.72,0,0,1-1,5.05,12.35,12.35,0,0,1-2.76,4,13.5,13.5,0,0,1-4.1,2.69,12.23,12.23,0,0,1-4.91,1,12,12,0,0,1-5-1,13.59,13.59,0,0,1-4-2.69,12.17,12.17,0,0,1-2.75-4,13.11,13.11,0,0,1,0-10.09,12.32,12.32,0,0,1,2.75-4,13.79,13.79,0,0,1,4-2.69,12.21,12.21,0,0,1,5-1,12.4,12.4,0,0,1,4.91,1,13.69,13.69,0,0,1,4.1,2.69,12.5,12.5,0,0,1,2.76,4A12.71,12.71,0,0,1,488.17,28.65Z" fill="#fff"/></g><g style="isolation:isolate"><path d="M510.76,99h23.41V37.13h-22.6V21h39.55V99h21.79v16.14H510.76Z" fill="#fff"/></g><g style="isolation:isolate"><path d="M582.05,99h23.41V37.13h-22.6V21h39.55V99H644.2v16.14H582.05Z" fill="#fff"/><path d="M670.3,87.3a13.1,13.1,0,0,0,1.41,5.45,13.44,13.44,0,0,0,3.5,4.31,16.58,16.58,0,0,0,5.11,2.82,18.53,18.53,0,0,0,6.12,1q6.31,0,9.68-2.22A13.27,13.27,0,0,0,701,93.36l14.53,8.07a28.53,28.53,0,0,1-3.37,5.31,23.51,23.51,0,0,1-5.58,5.05,31.24,31.24,0,0,1-8.34,3.76,39.89,39.89,0,0,1-11.5,1.48A37.22,37.22,0,0,1,673,114.61a30.29,30.29,0,0,1-10.7-7,31.58,31.58,0,0,1-7-11.17,42,42,0,0,1-2.49-14.93v-.81a36.17,36.17,0,0,1,2.62-14A31.79,31.79,0,0,1,662.63,56,33.07,33.07,0,0,1,673.32,49a34.5,34.5,0,0,1,13.12-2.49,33.37,33.37,0,0,1,14.8,3,31.9,31.9,0,0,1,10.22,7.67,30.23,30.23,0,0,1,5.92,10.22,33.93,33.93,0,0,1,1.88,10.83v9Zm16-25.42q-6.46,0-10.5,3.29a15,15,0,0,0-5.24,7.61H702A11.92,11.92,0,0,0,697,65,17.69,17.69,0,0,0,686.31,61.88Z" fill="#fff"/></g><g style="isolation:isolate"><path d="M768.62,122.41a13.12,13.12,0,0,1-13.72,13.72H737.15V120H748q3.63,0,3.63-4V20.18q0-4-3.63-4H737.15V0H754.9a13.41,13.41,0,0,1,9.89,3.83,13.38,13.38,0,0,1,3.83,9.89Z" fill="#fff"/></g></g></g></g></g></g></svg>