<svg xmlns="http://www.w3.org/2000/svg" width="90" height="89.979" viewBox="0 0 90 89.979">
  <g id="pinwheel" transform="translate(-3585.68 -419.759)">
    <path id="Path_127" data-name="Path 127" d="M3630.114,509.738a44.739,44.739,0,0,1-17.325-3.7l17.887-41.309s-.055,0,0,0Zm17.4-3.259-16.836-41.746c.016-.007-.031.031,0,0l31.622,32.025A44.788,44.788,0,0,1,3647.512,506.48Zm-49.255-10.523a44.781,44.781,0,0,1-9.538-14.912l41.957-16.311c.006.015-.03-.031,0,0ZM3672.2,482.1l-41.527-17.366c.007-.018,0,.022,0,0h45A44.755,44.755,0,0,1,3672.2,482.1Zm-41.527-17.366-45-1.12a44.718,44.718,0,0,1,3.915-17.285l41.08,18.405S3630.677,464.685,3630.676,464.734Zm0,0c0-.011.029.032,0,0l33.188-30.4a44.756,44.756,0,0,1,9.163,15.154Zm0,0-30.814-32.806a44.774,44.774,0,0,1,15.031-9.35l15.782,42.156C3630.661,464.739,3630.706,464.705,3630.676,464.734Zm0,0c-.006,0,.043,0,0,0l1.681-44.975a44.7,44.7,0,0,1,17.24,4.134Z" transform="translate(-0.001 0)" fill="#86cfc3"/>
  </g>
</svg>
