<svg id="prizes-blob" xmlns="http://www.w3.org/2000/svg" width="121.938" height="101.609" viewBox="0 0 121.938 101.609">
  <path id="Path_96" data-name="Path 96" d="M1820.087,868.75l-10.914-5.684a16.645,16.645,0,0,1-9.351-14.61V837.634c0-13.583-12.206-24.595-27.264-24.595h0c-15.057,0-27.264,11.011-27.264,24.595V848.66a16.646,16.646,0,0,1-9.351,14.61l-10.522,5.48c-13.04,6.792-17.508,21.834-9.979,33.6h0c7.529,11.763,24.2,15.794,37.243,9l10.718-5.582a20.472,20.472,0,0,1,18.7,0l10.718,5.582c13.04,6.792,29.714,2.761,37.244-9h0C1837.595,890.583,1833.126,875.542,1820.087,868.75Z" transform="translate(-1711.785 -813.039)" fill="#f9b8ce"/>
</svg>
