<svg xmlns="http://www.w3.org/2000/svg" width="429" height="84" viewBox="0 0 429 84">
  <path id="Path_122" data-name="Path 122" d="M2486.5,1143.841v79.4c-10.447-2.112-17.167-7.548-34.75-7.548-25.674,0-25.674,7.633-51.348,7.633s-25.681-7.633-51.355-7.633-25.674,7.633-51.355,7.633-25.674-7.633-51.348-7.633-25.674,7.633-51.355,7.633-25.674-7.633-51.355-7.633-25.674,7.633-51.355,7.633c-19.072,0-23.568-1.879-34.777-4.525v-79.4c10.461,2.112,17.181,7.557,34.77,7.557,25.681,0,25.681-7.633,51.355-7.633s25.674,7.633,51.355,7.633,25.674-7.633,51.348-7.633,25.674,7.633,51.355,7.633,25.674-7.633,51.348-7.633,25.681,7.633,51.355,7.633,25.681-7.633,51.362-7.633C2470.8,1139.325,2475.308,1141.2,2486.5,1143.841Z" transform="translate(-2057.496 -1139.325)" fill="#ea135b"/>
</svg>
